2.5Hzhigh3min_grf.mot
version=1
nRows=30
nColumns 19
inDegrees=yes
endheader
time	1_ground_force_vx	1_ground_force_vy	1_ground_force_vz	1_ground_force_px	1_ground_force_py	1_ground_force_pz	1_ground_torque_x	1_ground_torque_y	1_ground_torque_z	2_ground_force_vx	2_ground_force_vy	2_ground_force_vz	2_ground_force_px	2_ground_force_py	2_ground_force_pz	2_ground_torque_x	2_ground_torque_y	2_ground_torque_z
            3.751500	           -1.610215	          641.148913	          -26.274611	           -0.155440	            0.006137	           -0.381952	            0.002674	           -1.064818	            0.043637	          -17.569232	          626.321929	           28.990850	           -0.148393	            0.006009	           -0.714887	           -0.033902	            1.208572	            0.055942
            3.752000	           -1.377940	          632.493649	          -25.716155	           -0.155555	            0.006137	           -0.381923	            0.002551	           -1.170926	            0.047608	          -16.978640	          618.406988	           28.540004	           -0.148420	            0.006009	           -0.714825	           -0.034793	            1.267239	            0.058484
            3.752500	           -0.641800	          624.199664	          -25.294972	           -0.155545	            0.006137	           -0.381893	            0.001072	           -1.042544	            0.042248	          -16.479171	          609.755937	           27.898858	           -0.148281	            0.006010	           -0.714985	           -0.034716	            1.284547	            0.058773
            3.753000	           -0.134585	          616.806086	          -24.685933	           -0.155603	            0.006136	           -0.381724	            0.000196	           -0.899392	            0.035996	          -15.653124	          601.474687	           27.165030	           -0.148462	            0.006008	           -0.714717	           -0.030146	            1.158377	            0.052317
            3.753500	            0.098067	          606.708500	          -24.087805	           -0.155560	            0.006138	           -0.382144	           -0.000137	           -0.849252	            0.033717	          -15.015058	          593.376171	           26.619651	           -0.148680	            0.006007	           -0.714609	           -0.028436	            1.123771	            0.050414
            3.754000	            0.880667	          598.773815	          -23.390055	           -0.155571	            0.006138	           -0.382082	           -0.001237	           -0.840939	            0.032850	          -14.516836	          585.092732	           26.167531	           -0.148525	            0.006009	           -0.714846	           -0.026815	            1.080764	            0.048336
            3.754500	            0.654365	          590.298956	          -22.875544	           -0.155632	            0.006137	           -0.381923	           -0.001172	           -1.056892	            0.040957	          -14.113020	          576.993370	           25.622252	           -0.148593	            0.006008	           -0.714774	           -0.027738	            1.134028	            0.050358
            3.755000	            1.207571	          582.724894	          -22.221535	           -0.155720	            0.006136	           -0.381813	           -0.002467	           -1.190565	            0.045401	          -13.517816	          567.789840	           25.072951	           -0.148433	            0.006007	           -0.714400	           -0.027495	            1.154855	            0.050997
            3.755500	            1.348255	          574.790281	          -21.568048	           -0.155912	            0.006137	           -0.381908	           -0.002789	           -1.188927	            0.044612	          -13.024891	          560.979359	           24.673015	           -0.148625	            0.006007	           -0.714625	           -0.027260	            1.174085	            0.051639
            3.756000	            1.856531	          565.953202	          -20.644201	           -0.155817	            0.006137	           -0.381957	           -0.003513	           -1.071026	            0.039068	          -12.388819	          553.433326	           24.129608	           -0.148643	            0.006007	           -0.714425	           -0.026693	            1.192418	            0.051989
            3.756500	            2.179872	          558.200101	          -20.265531	           -0.155916	            0.006136	           -0.381801	           -0.003530	           -0.904028	            0.032821	          -11.700601	          544.414381	           23.533996	           -0.148569	            0.006007	           -0.714480	           -0.024785	            1.153236	            0.049852
            3.757000	            2.548762	          550.807872	          -19.977142	           -0.156071	            0.006135	           -0.381634	           -0.003839	           -0.829719	            0.030093	          -11.250620	          536.499557	           22.942426	           -0.148693	            0.006007	           -0.714466	           -0.021297	            1.015587	            0.043430
            3.757500	            2.873097	          541.971862	          -19.282118	           -0.155865	            0.006136	           -0.381803	           -0.004737	           -0.893542	            0.031790	          -10.894921	          528.767927	           22.539265	           -0.148866	            0.006006	           -0.714535	           -0.022503	            1.092135	            0.046553
            3.758000	            3.196958	          533.857382	          -18.721571	           -0.156080	            0.006137	           -0.381923	           -0.006186	           -1.032927	            0.036223	          -10.257623	          520.854327	           21.759903	           -0.148860	            0.006006	           -0.714379	           -0.020550	            1.043470	            0.043593
            3.758500	            3.061639	          527.366022	          -18.336353	           -0.156362	            0.006135	           -0.381527	           -0.006906	           -1.189544	            0.041360	           -9.857068	          513.675227	           21.358693	           -0.148945	            0.006005	           -0.714321	           -0.021081	            1.098571	            0.045679
            3.759000	            3.431541	          518.170018	          -17.780558	           -0.156451	            0.006136	           -0.381836	           -0.007676	           -1.159166	            0.039776	           -9.312078	          505.392627	           20.718841	           -0.148883	            0.006006	           -0.714369	           -0.020277	            1.100466	            0.045114
            3.759500	            3.572127	          510.776173	          -17.124752	           -0.156602	            0.006136	           -0.381734	           -0.007144	           -1.021569	            0.034250	           -8.815871	          497.661778	           20.221764	           -0.149101	            0.006004	           -0.714211	           -0.019267	            1.087610	            0.044193
            3.760000	            3.758067	          503.563418	          -16.651711	           -0.156374	            0.006135	           -0.381564	           -0.006854	           -0.918359	            0.030368	           -8.505631	          489.561073	           19.958093	           -0.148994	            0.006004	           -0.714151	           -0.018671	            1.074666	            0.043811
            3.760500	            4.219847	          495.808710	          -15.906535	           -0.156303	            0.006136	           -0.381845	           -0.007521	           -0.883691	            0.028351	           -7.729633	          482.199353	           19.509139	           -0.149079	            0.006004	           -0.714265	           -0.014889	            0.928820	            0.037579
            3.761000	            4.543514	          487.514388	          -15.438473	           -0.156628	            0.006136	           -0.381685	           -0.009086	           -0.974879	            0.030872	           -7.424813	          475.572732	           19.016085	           -0.149351	            0.006005	           -0.714576	           -0.015627	            1.000958	            0.040024
            3.761500	            4.775738	          479.760287	          -14.830296	           -0.156433	            0.006137	           -0.382032	           -0.010782	           -1.083124	            0.033481	           -6.876418	          466.368698	           18.560660	           -0.149248	            0.006004	           -0.714196	           -0.014368	            0.974453	            0.038782
            3.762000	            4.823628	          472.908824	          -14.538791	           -0.156791	            0.006135	           -0.381579	           -0.012019	           -1.178336	            0.036226	           -6.380855	          458.821823	           18.111168	           -0.149650	            0.006002	           -0.714111	           -0.014039	            1.009507	            0.039848
            3.762500	            5.056259	          464.793540	          -13.794593	           -0.156760	            0.006135	           -0.381653	           -0.012056	           -1.108260	            0.032892	           -5.934238	          451.828037	           17.429027	           -0.149455	            0.006003	           -0.714337	           -0.013525	            1.029811	            0.039724
            3.763000	            5.012934	          458.481904	          -13.271262	           -0.156847	            0.006134	           -0.381413	           -0.010708	           -0.979349	            0.028348	           -5.530340	          443.728005	           17.071460	           -0.149258	            0.006003	           -0.713933	           -0.012585	            1.009779	            0.038849
            3.763500	            5.198974	          450.728322	          -12.800540	           -0.156800	            0.006135	           -0.381577	           -0.010369	           -0.898943	            0.025530	           -5.271746	          436.917409	           16.483912	           -0.149724	            0.006001	           -0.714041	           -0.011079	            0.918203	            0.034642
            3.764000	            5.293833	          442.072835	          -12.195887	           -0.156777	            0.006136	           -0.381823	           -0.010358	           -0.864932	            0.023862	           -4.353787	          429.187185	           16.221297	           -0.149854	            0.006001	           -0.713980	           -0.008404	            0.828403	            0.031310
            3.764500	            5.479366	          435.221202	          -11.858867	           -0.156773	            0.006135	           -0.381628	           -0.012818	           -1.018138	            0.027742	           -4.045582	          421.639297	           15.865741	           -0.149498	            0.006001	           -0.713751	           -0.008146	            0.848998	            0.031947
            3.765000	            5.757349	          428.548507	          -11.200310	           -0.157048	            0.006135	           -0.381472	           -0.014703	           -1.094416	            0.028603	           -3.831118	          414.091407	           15.416369	           -0.149720	            0.006000	           -0.713741	           -0.008082	            0.873568	            0.032522
            3.765500	            5.714141	          420.975177	          -10.728246	           -0.157200	            0.006136	           -0.381686	           -0.015498	           -1.141751	            0.029097	           -3.338960	          407.465965	           14.782450	           -0.149993	            0.006000	           -0.713861	           -0.007106	            0.867126	            0.031458
            3.766000	            6.129362	          413.401936	          -10.257319	           -0.157028	            0.006135	           -0.381634	           -0.015621	           -1.053544	            0.026141	           -3.218840	          400.101709	           14.380703	           -0.150229	            0.005999	           -0.713815	           -0.007754	            0.963820	            0.034642
